@startuml
interface IPlant {
    Id : int <<get>> <<set>>
    Name : string <<get>> <<set>>
    WateringFrequency : string <<get>> <<set>>
    Fertilization : string <<get>> <<set>>
    Size : int <<get>> <<set>>
    VegetationStart : string <<get>> <<set>>
    VegetationEnd : string <<get>> <<set>>
    Insolation : string <<get>> <<set>>
    Temperature : int <<get>> <<set>>
    Categories : string <<get>>
}
class "List`1"<T> {
}
IDisplayable <|-- IPlant
IPlant --> "PlantCategories<IPlantCategory>" "List`1"
IPlant --> "CategoriesList<string>" "List`1"
@enduml
